<?xml version="1.0" encoding="utf-8"?>
<!-- Generator: Adobe Illustrator 26.5.1, SVG Export Plug-In . SVG Version: 6.00 Build 0)  -->
<svg version="1.1" id="Layer_1" xmlns="http://www.w3.org/2000/svg" xmlns:xlink="http://www.w3.org/1999/xlink" x="0px" y="0px"
	 viewBox="0 0 595.28 841.89" style="enable-background:new 0 0 595.28 841.89;" xml:space="preserve">
<style type="text/css">
	.st0{fill:#FFFFFF;}
</style>
<g>
	<g>
		<path class="st0" d="M545.57,252.55c-161.27,0-322.55,0-483.9,0c0-50.89,0-101.8,0-152.81c161.25,0,322.57,0,483.9,0
			C545.57,150.62,545.57,201.58,545.57,252.55z M354.66,162.57c0.02,0.38,0.04,0.76,0.06,1.13c14.32-0.65,28.66-1.04,42.95-2.03
			c10.57-0.74,21.05-2.54,31.62-3.38c17.42-1.38,34.62-0.79,51.6,4.52c10.71,3.35,21.84,3.84,32.58-1.1
			c8.28-3.81,16.22-8.12,22.88-14.39c1.75-1.64,2.88-3.93,4.3-5.92c-6.16,4.17-12.54,6.53-19.79,6.52c-4.3-0.01-8.8,0.96-12.85-0.01
			c-13.44-3.21-26.71-7.15-40.07-10.72c-19.24-5.14-38.32-11.03-57.79-15.06c-18.01-3.73-36.41-5.78-54.71-7.92
			c-17.9-2.09-35.68,0.01-53.24,3.69c-5.24,1.1-10.38,2.78-15.45,4.51c-9.38,3.21-18.73,6.54-28,10.05
			c-10.94,4.15-21.79,8.55-32.67,12.84c0.12,0.34,0.25,0.68,0.37,1.02c0.43-0.07,0.87-0.08,1.27-0.21
			c11.48-3.75,22.89-7.71,34.44-11.21c15.67-4.76,31.23-9.84,47.61-12.14c17.62-2.47,35.04-2.66,52.63,0.1
			c19.01,2.98,38.23,4.64,56.77,10.28c5.46,1.66,11.18,2.45,16.68,4.01c17.69,5.01,35.32,10.26,53.01,15.28
			c5.32,1.51,10.76,2.59,16.14,3.87c-0.03,0.34-0.06,0.68-0.09,1.02c-4.63,0-9.33,0.48-13.88-0.11c-6.54-0.85-12.97-2.56-19.47-3.77
			c-17.46-3.26-34.93-1.19-52.27,0.69c-12.39,1.34-24.53,4.76-36.89,6.5C373.23,161.9,363.91,161.96,354.66,162.57z M73.67,178.2
			c0.18,0.36,0.35,0.71,0.53,1.07c0.54-0.15,1.08-0.32,1.62-0.45c12.15-3.08,24.24-6.48,36.48-9.15c16.94-3.7,33.88-7.54,51.32-8.38
			c16.89-0.81,33.76-2.51,50.66-2.75c17.97-0.25,35.95,0.94,53.93,1.15c17.51,0.21,35.05,0.63,52.53-0.22
			c17.35-0.84,34.69-2.76,51.93-4.94c12.85-1.63,25.55-4.43,38.32-6.71c6.37-1.14,12.75-2.26,19.12-3.4
			c-5.17-0.2-10.24,0.03-15.29,0.45c-5.01,0.42-9.99,1.12-15,1.54c-13.72,1.16-27.43,2.51-41.17,3.28
			c-15.01,0.84-30.05,1.57-45.08,1.54c-20.79-0.04-41.58-0.91-62.37-1.27c-14.36-0.24-28.77-0.95-43.08-0.12
			c-17.81,1.04-35.7,2.54-53.27,5.51c-17.19,2.91-34.12,7.54-50.96,12.16C93.61,170.34,83.72,174.59,73.67,178.2z M393.05,186.4
			c0-1.15-0.01-1.84,0-2.53c0.08-7.54-1.87-9.43-9.51-9.53c-3.35-0.05-6.7-0.51-10.05-0.63c-2.69-0.1-5.4-0.17-8.07,0.09
			c-3.65,0.35-5.87,2.67-5.97,6.14c-0.3,10.54-0.55,21.09-0.7,31.63c-0.07,4.52,2.27,6.93,6.86,7c6.9,0.11,13.81,0.05,20.71-0.09
			c4.02-0.08,5.79-1.73,5.95-5.59c0.18-4.3,0.18-8.61,0-12.91c-0.16-3.69-2.59-5.96-6.3-6.19c-5.11-0.31-10.22-0.53-15.33-0.76
			c-1.49-0.07-2.98-0.01-4.59-0.01c0-4.51,0-8.61,0-13.16c6.85,0.36,13.43,0.7,20.17,1.05c0.22,1.92,0.43,3.69,0.64,5.49
			C389,186.4,390.82,186.4,393.05,186.4z M308.92,196.31c0.01,0,0.01,0,0.02,0c0,5.23,0.01,10.47,0,15.7
			c-0.01,3.3,1.53,5.52,4.73,5.67c9.09,0.43,18.18,0.7,27.28,0.76c3.62,0.03,5.88-2.37,6-5.98c0.34-10.66,0.59-21.32,0.72-31.99
			c0.05-4.1-2.31-6.56-6.45-6.75c-8.26-0.37-16.52-0.64-24.79-0.72c-5.04-0.05-7.45,2.56-7.49,7.6
			C308.89,185.84,308.92,191.08,308.92,196.31z M268.86,199.16c4.72,0.32,8.99,0.52,13.22,1c0.75,0.08,1.59,1.2,2,2.03
			c1.85,3.75,3.55,7.58,5.33,11.37c2.33,4.95,2.34,4.95,8.8,3.78c-2.68-5.88-5.28-11.58-7.97-17.51c4.93-1.12,7.36-4.21,7.85-8.63
			c0.34-3.1,0.34-6.29,0.06-9.41c-0.42-4.73-3.24-7.57-7.96-8.33c-2.18-0.35-4.42-0.46-6.63-0.48c-6.71-0.06-13.42-0.02-20.61-0.02
			c0,14.42,0,29.2,0,43.94c1.89,0,3.79,0,5.91,0C268.86,211.05,268.86,205.5,268.86,199.16z M439.49,197.23
			c0-5.11,0.06-10.22-0.02-15.33c-0.06-3.75-2.08-6.53-5.24-6.71c-7.65-0.42-15.32-0.7-22.99-0.75c-3.82-0.02-6.41,2.32-6.55,5.94
			c-0.41,10.87-0.68,21.75-0.73,32.62c-0.02,3.88,2.58,6.16,6.57,6.23c7.36,0.13,14.72,0.15,22.08,0.01
			c4.54-0.09,6.81-2.54,6.87-7.04C439.54,207.21,439.5,202.22,439.49,197.23z M209.21,228.11c0.05,0.19,0.09,0.37,0.14,0.56
			c9.52,0.75,19.03,1.79,28.57,2.18c16.79,0.69,33.59,1.23,50.39,1.4c18.44,0.18,36.89,0.17,55.32-0.31
			c14.49-0.38,28.96-1.59,43.43-2.44c5.48-0.32,10.95-0.66,16.43-0.99c-5.29-0.74-10.5-1.23-15.72-1.35
			c-18.56-0.42-37.11-0.96-55.67-0.99c-24.52-0.04-49.04,0.36-73.55,0.56c-0.12,0-0.23,0-0.35,0
			C241.87,227.19,225.54,227.65,209.21,228.11z M252.56,210.76c-1.6,0-2.86,0-4.13,0c-6.2,0-12.4,0.1-18.59-0.09
			c-1.21-0.04-3.34-1.09-3.42-1.84c-0.37-3.5-0.16-7.07-0.16-10.87c7.79,0,15,0,22.44,0c0-2.18,0-4.08,0-6.41
			c-7.52,0-14.82,0-22.68,0c0.4-4.55,0.76-8.61,1.14-12.91c7.21,0,14.1,0,20.98,0c5.34,0,5.81-0.58,4.89-6.11
			c-10.79,0-21.59,0-32.84,0c0,14.7,0,29.14,0,44.13c10.7,0,21.46,0,32.37,0C252.56,214.92,252.56,213.09,252.56,210.76z
			 M184.7,210.06c8.25-13.42,18.98-24.48,26.67-38.27c-12.56,0-24.19,0-35.8,0c0,2.13,0,4.03,0,6.34c8.09,0,15.93,0,24.51,0
			c-9.24,12.67-18.03,24.71-26.82,36.76c0.28,0.37,0.56,0.73,0.84,1.1c11.92,0,23.84,0,35.72,0c0-1.94,0-3.75,0-5.93
			C201.47,210.06,193.35,210.06,184.7,210.06z M135.76,166.23c-17.1,4.93-34.74,8.17-49.23,19.39c7.34-1,14.52-2.48,21.7-3.98
			c4.97-1.04,10.05-1.73,14.88-3.23C129.1,176.54,133.49,172.52,135.76,166.23z"/>
		<path d="M354.66,162.57c9.25-0.61,18.57-0.67,27.72-1.96c12.36-1.74,24.51-5.16,36.89-6.5c17.34-1.88,34.81-3.95,52.27-0.69
			c6.5,1.21,12.93,2.92,19.47,3.77c4.55,0.59,9.25,0.11,13.88,0.11c0.03-0.34,0.06-0.68,0.09-1.02c-5.38-1.28-10.82-2.36-16.14-3.87
			c-17.69-5.02-35.32-10.27-53.01-15.28c-5.5-1.56-11.22-2.35-16.68-4.01c-18.53-5.64-37.76-7.3-56.77-10.28
			c-17.6-2.76-35.01-2.57-52.63-0.1c-16.38,2.3-31.93,7.38-47.61,12.14c-11.55,3.51-22.97,7.47-34.44,11.21
			c-0.4,0.13-0.85,0.15-1.27,0.21c-0.12-0.34-0.25-0.68-0.37-1.02c10.89-4.29,21.73-8.69,32.67-12.84c9.27-3.51,18.62-6.84,28-10.05
			c5.07-1.74,10.21-3.42,15.45-4.51c17.56-3.68,35.33-5.78,53.24-3.69c18.3,2.14,36.7,4.19,54.71,7.92
			c19.47,4.03,38.56,9.92,57.79,15.06c13.36,3.57,26.62,7.51,40.07,10.72c4.05,0.97,8.56,0,12.85,0.01
			c7.26,0.01,13.63-2.35,19.79-6.52c-1.42,1.99-2.55,4.28-4.3,5.92c-6.66,6.27-14.6,10.58-22.88,14.39
			c-10.74,4.95-21.87,4.46-32.58,1.1c-16.97-5.31-34.18-5.9-51.6-4.52c-10.56,0.84-21.05,2.64-31.62,3.38
			c-14.29,1-28.63,1.39-42.95,2.03C354.7,163.33,354.68,162.95,354.66,162.57z"/>
		<path d="M73.67,178.2c10.06-3.61,19.94-7.86,30.22-10.69c16.84-4.63,33.77-9.25,50.96-12.16c17.57-2.97,35.45-4.48,53.27-5.51
			c14.31-0.83,28.72-0.13,43.08,0.12c20.79,0.35,41.58,1.23,62.37,1.27c15.03,0.03,30.07-0.7,45.08-1.54
			c13.74-0.77,27.45-2.12,41.17-3.28c5.01-0.42,9.99-1.13,15-1.54c5.05-0.42,10.12-0.65,15.29-0.45c-6.37,1.13-12.75,2.26-19.12,3.4
			c-12.77,2.28-25.47,5.08-38.32,6.71c-17.25,2.18-34.58,4.1-51.93,4.94c-17.47,0.85-35.02,0.44-52.53,0.22
			c-17.98-0.22-35.96-1.41-53.93-1.15c-16.89,0.24-33.76,1.94-50.66,2.75c-17.44,0.84-34.38,4.68-51.32,8.38
			c-12.24,2.67-24.33,6.07-36.48,9.15c-0.54,0.14-1.08,0.3-1.62,0.45C74.02,178.92,73.84,178.56,73.67,178.2z"/>
		<path d="M393.05,186.4c-2.22,0-4.05,0-6.17,0c-0.21-1.8-0.41-3.58-0.64-5.49c-6.75-0.35-13.32-0.7-20.17-1.05
			c0,4.55,0,8.65,0,13.16c1.62,0,3.11-0.06,4.59,0.01c5.11,0.22,10.22,0.44,15.33,0.76c3.71,0.23,6.14,2.5,6.3,6.19
			c0.18,4.3,0.18,8.61,0,12.91c-0.16,3.87-1.94,5.52-5.95,5.59c-6.9,0.14-13.81,0.19-20.71,0.09c-4.59-0.07-6.93-2.49-6.86-7
			c0.15-10.54,0.41-21.09,0.7-31.63c0.1-3.48,2.32-5.79,5.97-6.14c2.67-0.25,5.38-0.19,8.07-0.09c3.35,0.13,6.7,0.59,10.05,0.63
			c7.64,0.11,9.59,1.99,9.51,9.53C393.04,184.55,393.05,185.24,393.05,186.4z M385.63,211.98c0-4.06,0-7.81,0-12.05
			c-6.88,0-13.53,0-20.33,0c0,3.91,0,7.89,0,12.05C372.09,211.98,378.69,211.98,385.63,211.98z"/>
		<path d="M308.92,196.31c0-5.23-0.03-10.47,0.01-15.7c0.04-5.05,2.45-7.65,7.49-7.6c8.26,0.08,16.53,0.35,24.79,0.72
			c4.14,0.19,6.5,2.65,6.45,6.75c-0.13,10.66-0.38,21.33-0.72,31.99c-0.11,3.61-2.37,6.01-6,5.98c-9.1-0.06-18.19-0.34-27.28-0.76
			c-3.2-0.15-4.74-2.37-4.73-5.67c0.01-5.23,0-10.47,0-15.7C308.94,196.31,308.93,196.31,308.92,196.31z M315.65,179.86
			c0,10.36,0,20.86,0,31.83c8.34,0,16.44,0,25.07,0c0-10.37,0-20.83,0-31.83C332.49,179.86,324.17,179.86,315.65,179.86z"/>
		<path d="M268.86,199.16c0,6.34,0,11.9,0,17.74c-2.11,0-4.02,0-5.91,0c0-14.74,0-29.52,0-43.94c7.19,0,13.9-0.04,20.61,0.02
			c2.21,0.02,4.45,0.13,6.63,0.48c4.72,0.75,7.54,3.59,7.96,8.33c0.28,3.11,0.28,6.3-0.06,9.41c-0.49,4.43-2.92,7.52-7.85,8.63
			c2.7,5.93,5.3,11.63,7.97,17.51c-6.46,1.17-6.47,1.18-8.8-3.78c-1.78-3.79-3.48-7.62-5.33-11.37c-0.41-0.83-1.26-1.95-2-2.03
			C277.85,199.68,273.59,199.48,268.86,199.16z M269.11,193.51c5.89,0,11.55,0.08,17.21-0.06c1.43-0.03,3.95-0.56,4.07-1.21
			c0.63-3.41,1.2-7.01,0.73-10.39c-0.39-2.83-3.54-2.48-5.84-2.5c-5.31-0.06-10.62-0.02-16.17-0.02
			C269.11,183.31,269.11,187.77,269.11,193.51z"/>
		<path d="M439.5,197.23c0,4.99,0.05,9.99-0.01,14.98c-0.05,4.49-2.33,6.95-6.87,7.04c-7.36,0.14-14.72,0.12-22.08-0.01
			c-3.99-0.07-6.59-2.35-6.57-6.23c0.04-10.88,0.31-21.75,0.73-32.62c0.14-3.63,2.73-5.97,6.55-5.94
			c7.66,0.04,15.33,0.33,22.99,0.75c3.16,0.17,5.18,2.96,5.24,6.71C439.55,187.01,439.49,192.12,439.5,197.23z M410.96,212.63
			c7.2,0,14.48,0,21.87,0c0-10.47,0-20.73,0-31.44c-7.27,0-14.3,0-21.87,0C410.96,191.52,410.96,201.91,410.96,212.63z"/>
		<path d="M209.21,228.11c16.33-0.46,32.66-0.92,49-1.38c0.12,0,0.23,0,0.35,0c24.52-0.21,49.04-0.61,73.55-0.56
			c18.56,0.03,37.12,0.57,55.67,0.99c5.22,0.12,10.42,0.61,15.72,1.35c-5.48,0.33-10.95,0.67-16.43,0.99
			c-14.48,0.85-28.94,2.07-43.43,2.44c-18.43,0.48-36.89,0.49-55.32,0.31c-16.8-0.17-33.6-0.7-50.39-1.4
			c-9.54-0.39-19.05-1.43-28.57-2.18C209.3,228.49,209.25,228.3,209.21,228.11z"/>
		<path d="M252.56,210.76c0,2.34,0,4.16,0,5.9c-10.92,0-21.67,0-32.37,0c0-15,0-29.44,0-44.13c11.25,0,22.05,0,32.84,0
			c0.92,5.53,0.45,6.11-4.89,6.11c-6.89,0-13.77,0-20.98,0c-0.38,4.3-0.74,8.37-1.14,12.91c7.86,0,15.16,0,22.68,0
			c0,2.33,0,4.23,0,6.41c-7.44,0-14.65,0-22.44,0c0,3.81-0.2,7.37,0.16,10.87c0.08,0.75,2.21,1.8,3.42,1.84
			c6.19,0.19,12.4,0.09,18.59,0.09C249.69,210.76,250.96,210.76,252.56,210.76z"/>
		<path d="M184.7,210.06c8.65,0,16.77,0,25.11,0c0,2.18,0,3.99,0,5.93c-11.88,0-23.8,0-35.72,0c-0.28-0.37-0.56-0.73-0.84-1.1
			c8.79-12.04,17.57-24.09,26.82-36.76c-8.57,0-16.41,0-24.51,0c0-2.31,0-4.21,0-6.34c11.61,0,23.24,0,35.8,0
			C203.69,185.58,192.95,196.64,184.7,210.06z"/>
		<path d="M135.76,166.23c-2.27,6.29-6.66,10.31-12.65,12.18c-4.82,1.5-9.91,2.2-14.88,3.23c-7.17,1.5-14.35,2.98-21.7,3.98
			C101.02,174.4,118.67,171.15,135.76,166.23z"/>
		<path class="st0" d="M385.63,211.98c-6.94,0-13.54,0-20.33,0c0-4.16,0-8.15,0-12.05c6.8,0,13.45,0,20.33,0
			C385.63,204.16,385.63,207.92,385.63,211.98z"/>
		<path class="st0" d="M315.65,179.86c8.52,0,16.84,0,25.07,0c0,11,0,21.46,0,31.83c-8.63,0-16.73,0-25.07,0
			C315.65,200.72,315.65,190.22,315.65,179.86z"/>
		<path class="st0" d="M269.11,193.51c0-5.73,0-10.19,0-14.17c5.55,0,10.86-0.04,16.17,0.02c2.3,0.02,5.44-0.33,5.84,2.5
			c0.47,3.38-0.09,6.98-0.73,10.39c-0.12,0.65-2.64,1.17-4.07,1.21C280.66,193.59,274.99,193.51,269.11,193.51z"/>
		<path class="st0" d="M410.96,212.63c0-10.73,0-21.11,0-31.44c7.57,0,14.6,0,21.87,0c0,10.72,0,20.97,0,31.44
			C425.45,212.63,418.16,212.63,410.96,212.63z"/>
	</g>
</g>
<path class="st0" d="M57,81.36c-6.43,0-6.45,10,0,10C63.43,91.36,63.44,81.36,57,81.36z"/>
<path class="st0" d="M72.24,60.77c-6.43,0-6.45,10,0,10C78.68,70.77,78.69,60.77,72.24,60.77z"/>
</svg>
